<svg width="34" height="26" viewBox="0 0 34 26" fill="none" xmlns="http://www.w3.org/2000/svg">
<path d="M32.1228 5.01984C31.82 3.34844 30.3772 2.13125 28.7028 1.75125C26.1972 1.21984 21.56 0.839844 16.5428 0.839844C11.5286 0.839844 6.81719 1.21984 4.30859 1.75125C2.63719 2.13125 1.19141 3.27125 0.888592 5.01984C0.582812 6.91984 0.279999 9.57984 0.279999 12.9998C0.279999 16.4198 0.582812 19.0798 0.962812 20.9798C1.26859 22.6512 2.71141 23.8684 4.38281 24.2484C7.04281 24.7798 11.6028 25.1598 16.62 25.1598C21.6372 25.1598 26.1972 24.7798 28.8572 24.2484C30.5286 23.8684 31.9714 22.7284 32.2772 20.9798C32.58 19.0798 32.96 16.3427 33.0372 12.9998C32.8828 9.57984 32.5028 6.91984 32.1228 5.01984ZM12.44 18.3198V7.67984L21.7114 12.9998L12.44 18.3198Z" fill="#9D9D9D"/>
</svg>
