<svg width="30" height="25" viewBox="0 0 30 25" fill="none" xmlns="http://www.w3.org/2000/svg">
<path d="M17.6647 0C15.5656 0 13.999 1.71314 13.999 3.66211V7.03516C11.2461 7.18109 8.7284 7.91436 6.71852 9.06445C5.94399 8.32141 4.90689 7.99145 3.90134 7.99219C2.81109 7.99299 1.69654 8.37041 0.927747 9.23438L0.910151 9.25391L0.892556 9.27344C0.155069 10.1942 -0.136949 11.4277 0.0597164 12.6523C0.239322 13.7707 0.887673 14.8934 2.01474 15.6289C2.00736 15.7531 1.98737 15.8746 1.98737 16C1.98737 20.962 7.82504 25 15 25C22.175 25 28.0126 20.962 28.0126 16C28.0126 15.8746 27.9926 15.7531 27.9853 15.6289C29.1123 14.8934 29.7607 13.7707 29.9403 12.6523C30.137 11.4277 29.8449 10.1942 29.1074 9.27344L29.0898 9.25391L29.0723 9.23438C28.3034 8.37029 27.189 7.99299 26.0987 7.99219C25.093 7.99145 24.0558 8.32113 23.2815 9.06445C21.2716 7.91436 18.7539 7.18109 16.001 7.03516V3.66211C16.001 2.68308 16.5667 2 17.6647 2C18.1859 2 18.8208 2.2609 19.8152 2.60938C20.6559 2.90396 21.7499 3.2017 23.1485 3.29102C23.4831 4.27909 24.412 5 25.5102 5C26.8865 5 28.0126 3.875 28.0126 2.5C28.0126 1.125 26.8865 0 25.5102 0C24.5705 0 23.756 0.530421 23.3284 1.30078C22.1328 1.23463 21.2543 0.994708 20.478 0.722656C19.5733 0.405627 18.7421 0 17.6647 0ZM3.90134 9.99219C4.29686 9.9919 4.67264 10.0956 4.98246 10.2637C3.8774 11.1852 3.03896 12.2618 2.53282 13.4375C2.26407 13.1061 2.10213 12.734 2.0382 12.3359C1.93033 11.6642 2.13153 10.966 2.45071 10.5527C2.75233 10.2284 3.30311 9.99263 3.90134 9.99219ZM26.0967 9.99219C26.6951 9.99263 27.2478 10.2285 27.5493 10.5527C27.8685 10.966 28.0697 11.6642 27.9618 12.3359C27.8979 12.734 27.7359 13.1061 27.4672 13.4375C26.961 12.2618 26.1226 11.1852 25.0175 10.2637C25.3267 10.0958 25.7013 9.9919 26.0967 9.99219ZM9.99514 12C11.1012 12 11.9971 12.895 11.9971 14C11.9971 15.105 11.1012 16 9.99514 16C8.88907 16 7.9932 15.105 7.9932 14C7.9932 12.895 8.88907 12 9.99514 12ZM20.0049 12C21.1109 12 22.0068 12.895 22.0068 14C22.0068 15.105 21.1109 16 20.0049 16C18.8988 16 18.0029 15.105 18.0029 14C18.0029 12.895 18.8988 12 20.0049 12ZM20.2434 17.5332C19.6038 19.4002 17.5585 21 15 21C12.4415 21 10.3963 19.401 9.75663 17.668C10.9077 18.601 12.8259 19.2676 15 19.2676C17.1741 19.2676 19.0923 18.6002 20.2434 17.5332Z" fill="#9D9D9D"/>
</svg>
