<svg xmlns="http://www.w3.org/2000/svg" viewBox="0 0 42.05 42.04"><defs><style>.cls-1{fill:none;}.cls-2{fill:#8c8c8c;}.cls-3{fill:#231f20;}</style></defs><g id="Layer_2" data-name="Layer 2"><g id="Layer_1-2" data-name="Layer 1"><path class="cls-1" d="M10.65,39.3A16.3,16.3,0,0,0,21,41.21,16.3,16.3,0,0,1,10.65,39.3a18.29,18.29,0,0,1-1.86-1.19c-.44-.33-1-.78-1.46-1.14s-.81-.71-1.12-1S5.33,35,5,34.6s-.7-.85-1-1.24-.7-1-1-1.49a13.79,13.79,0,0,1-.78-1.4C2,30,1.7,29.33,1.5,28.84S1.1,27.76,1,27.29a20.5,20.5,0,0,1-.68-2.91A25.67,25.67,0,0,1,0,21c0-.57,0-1.31.09-1.87s.15-1.18.22-1.68.25-1.26.38-1.79.32-1.11.49-1.57.45-1.2.68-1.7.5-1,.72-1.44a17.21,17.21,0,0,1,1-1.59c.26-.39.65-.89.93-1.28A17.47,17.47,0,0,1,5.73,6.6c.32-.33.75-.77,1.09-1.07S8,4.55,8.48,4.16c.34-.26.81-.58,1.17-.81s.85-.52,1.22-.73a18.05,18.05,0,0,1,2.17-1c.44-.17,1-.39,1.48-.54S15.59.71,16.06.6s1-.23,1.47-.31c.21,0,.48-.08.69-.1L19.3.07s.6,0,1.43-.07c.59,0,1.11,0,1.36,0s1,.06,1.47.13l1.13.16.6.12a20.32,20.32,0,0,1,2.51.68l1.44.55c.32.14.75.34,1.07.5s1.06.56,1.51.82.85.52,1.19.77.83.6,1.16.87,1,.82,1.37,1.2.77.76,1.08,1.11.83.95,1.15,1.38a21.59,21.59,0,0,1,1.82,2.84,29.19,29.19,0,0,1,1.3,3c.19.51.38,1.21.52,1.74s.23,1.14.34,1.63A14.06,14.06,0,0,1,42,19.34,18.3,18.3,0,0,1,42,21.43c0,.52,0,1.2-.1,1.71A18.51,18.51,0,0,1,41.67,25c-.11.49-.25,1.14-.38,1.62s-.37,1.24-.57,1.75-.42,1.06-.62,1.5-.58,1.19-.87,1.67c-.49.82-1.22,1.86-1.79,2.62-.35.46-.89,1-1.29,1.46a13.63,13.63,0,0,1-1.09,1.06c-.49.43-1.18,1-1.69,1.36A14.87,14.87,0,0,1,32,39c-.63.37-1.48.83-2.14,1.14-.46.23-1.1.48-1.58.66s-1.07.36-1.53.49c-.93.25-1.35.34-2.21.5-.4.07-1.19.18-1.77.22l-1,.06c-.68,0-.7,0-1.37,0-.09,0-.9,0-1.92-.14-.61-.08-1.12-.17-1.13-.17l-.66-.13L16,41.43c-.27-.06-.63-.16-.89-.24s-.61-.19-.87-.27c-.44-.15-1-.36-1.44-.55C12.15,40.07,11.29,39.64,10.65,39.3Z"/><path class="cls-2" d="M28.77,1.48l-.08,0A19.67,19.67,0,0,0,26.76.8c-1-.25-1-.25-1.47-.36L24.09.23,23.66.17a22.15,22.15,0,0,0-5.21,0l-.23,0a21.61,21.61,0,0,0-4.8,1.23A16.09,16.09,0,0,1,16.9.62c4.23-.57,9.25-.18,11.87.86"/><path class="cls-2" d="M35.45,5.74l-.17-.16a21.93,21.93,0,0,0-2.7-2.11l-.25-.15C29.27,1.58,21.75.85,15.52,1.69a15.55,15.55,0,0,0-6,1.77A21.42,21.42,0,0,0,6.82,5.53l-.17.16c1.15-1.08,3.86-2,7.79-2.55,7.44-1,16.44-.13,20.09,1.94a4.87,4.87,0,0,1,.92.66"/><path class="cls-2" d="M39.84,11.64,39.5,11c-.42-.71-1-1.64-1.47-2.32A4.33,4.33,0,0,0,36.6,7.51C32.39,5.12,22,4.11,13.41,5.27c-5,.67-8.32,1.94-9.36,3.35-.46.68-1.06,1.6-1.47,2.32l-.34.64c.85-1.68,4.57-3.2,10.44-4,9.41-1.27,20.78-.17,25.39,2.46a4.26,4.26,0,0,1,1.77,1.59"/><path class="cls-2" d="M41.92,18.75l-.17-1.24c-.14-.67-.33-1.57-.51-2.24a3.87,3.87,0,0,0-2-2c-4.93-2.8-17.07-4-27.13-2.62C5.44,11.51,1.37,13.29.82,15.2c-.17.67-.39,1.56-.51,2.24L.13,18.68c.23-2.08,4.5-4,11.69-5,10.37-1.39,22.89-.18,28,2.71,1.35.77,2,1.58,2.13,2.38"/><path class="cls-2" d="M41.37,26.3l.33-1.49c.08-.6.21-1.41.26-2,.08-.91-.6-1.83-2.13-2.7-5.1-2.89-17.65-4.11-28-2.71-7.57,1-11.9,3.14-11.72,5.34.11.89.28,2.08.45,3l.13.54C.08,24,4.34,21.79,12,20.76c10.12-1.36,22.34-.18,27.3,2.64,1.65.94,2.29,1.93,2,2.9"/><path class="cls-2" d="M38.3,33c.32-.5.76-1.17,1.06-1.69L40,30c.48-1-.07-2.06-1.8-3-4.67-2.65-16.17-3.76-25.69-2.48C5,25.47.93,27.7,2,29.91c.34.64.79,1.51,1.16,2.13l.57.88c-1.47-2.12,2.25-4.32,9.55-5.3,8.74-1.18,19.3-.16,23.58,2.28C38.58,30.89,39,32,38.3,33"/><path class="cls-2" d="M33,38.27c.62-.46,1.44-1.11,2-1.61l.73-.69c1-1,.74-2-1-3-3.74-2.12-12.95-3-20.57-2-6.78.91-10,3-8,5,.44.4,1,.94,1.47,1.32s.9.71,1.3,1c-2.52-1.74.18-3.74,6.32-4.57,6.43-.86,14.2-.11,17.36,1.68,1.68,1,1.71,2,.38,2.93"/><path class="cls-2" d="M14.84,41a15.38,15.38,0,0,1-2.71-.9l.57.27.65.27a19.67,19.67,0,0,0,1.93.65,14.92,14.92,0,0,0,1.47.36l.5.1A8.07,8.07,0,0,1,14.84,41"/><path class="cls-2" d="M14.81,40.93c-1.67-1-.26-2.09,3.15-2.54s7.52-.06,9.2.88.38,2-2.72,2.49a21.26,21.26,0,0,0,4.32-1.2l.51-.21c1.85-.78,2.21-1.81.61-2.72-2.41-1.36-8.34-1.94-13.25-1.28S9.68,38.66,12.09,40a15.77,15.77,0,0,0,2.72.9"/><path class="cls-2" d="M21,41.21a17.63,17.63,0,0,1-2.88.16,8.6,8.6,0,0,0,4.3.41c1.6-.22,2.26-.75,1.47-1.2a8.48,8.48,0,0,0-4.3-.41c-1.6.21-2.26.75-1.48,1.19A17.73,17.73,0,0,0,21,41.21"/><path class="cls-1" d="M23.82,41.85c-.53.08-1.12.13-1.57.16s-1.05.05-1.85,0a19.24,19.24,0,0,1-1.92-.14c-.35,0-.41,0-1.11-.17l-.6-.11c-.37-.07-1.09-.25-1.49-.37s-1.23-.38-1.75-.58-.88-.35-1.25-.52-1.15-.57-1.63-.84c-5.13-2.91-8.51-8.67-8.5-15.74C2.17,12.41,10.64,2.23,21.06.83,10.64,2.23,2.17,12.41,2.15,23.56c0,7.07,3.37,12.83,8.5,15.74-.36-.22-.85-.49-1.19-.73-.56-.38-1.28-.91-1.8-1.33a24.48,24.48,0,0,1-2.21-2.11,12.7,12.7,0,0,1-1.28-1.55c-.32-.46-.75-1.06-1-1.54a14.79,14.79,0,0,1-.79-1.4c-.24-.49-.56-1.15-.77-1.65S1.15,27.92,1,27.45.64,26.23.52,25.69s-.23-1.15-.3-1.64A19.6,19.6,0,0,1,0,21a29.59,29.59,0,0,1,.28-3.4,15.19,15.19,0,0,1,.37-1.78c.14-.47.31-1.11.47-1.58a16.1,16.1,0,0,1,.66-1.67c.21-.44.47-1,.7-1.45S3.1,10,3.4,9.57s.62-.92.91-1.29.79-1,1.15-1.39.74-.78,1.08-1.1,1-.86,1.39-1.21S8.72,4,9.08,3.73s1.14-.73,1.64-1A22.06,22.06,0,0,1,13,1.57c.46-.18,1.08-.41,1.55-.56S15.66.69,16.13.58s1-.23,1.46-.3c.75-.12,1.05-.15,1.7-.21C19.43.06,20,0,20.73,0h.45l.91,0c.56,0,1.17.09,1.47.12s1.07.16,1.11.17c.51.09.87.16,1.31.27l.78.21c.26.07.61.17.86.26l1.07.39c.32.13.76.3,1.07.46.49.24,1.15.56,1.63.83s.86.5,1.21.74.83.57,1.17.84,1.08.86,1.51,1.26.78.75,1.1,1.09.9,1,1.24,1.46A20,20,0,0,1,39.5,11a29.24,29.24,0,0,1,1.33,3,17.69,17.69,0,0,1,.54,1.75c.12.49.24,1.14.35,1.63A14,14,0,0,1,42,19.19c0,.56.08,1.3.08,1.87s0,1.2-.07,1.71a13.89,13.89,0,0,1-.27,2c-.11.49-.24,1.15-.37,1.63s-.36,1.22-.54,1.73-.41,1.06-.61,1.51-.55,1.14-.82,1.61c-.48.82-1.2,1.87-1.76,2.64a17.06,17.06,0,0,1-1.17,1.38c-.39.42-.93,1-1.37,1.35-.66.56-1.55,1.28-2.27,1.77a17.33,17.33,0,0,1-1.65,1c-.32.17-.74.4-1.07.55s-.91.42-1.31.57l-.76.29c-.46.15-1.07.35-1.53.47A20.69,20.69,0,0,1,23.82,41.85Z"/><path class="cls-3" d="M18.62,1.21C18,.84,18.51.4,19.84.22a7.09,7.09,0,0,1,3.59.34c.65.37.1.82-1.23,1a7.13,7.13,0,0,1-3.57-.34c.71-.17,1.67-.38,2.39-.5a19.25,19.25,0,0,0-2.4.49"/><path class="cls-3" d="M24.05.12c.76.12.79.12,1.2.21.9.2,1,.21,1.48.36,1.09.34,1.2.37,1.92.65l.09,0a7.77,7.77,0,0,1,.76.35c2.29,1.31.36,2.87-4.32,3.5S14.89,5.32,12.58,4a21.88,21.88,0,0,1,2.74-1.58c1.57.87,5.36,1.24,8.51.81S28.29,1.78,26.74.9A8.88,8.88,0,0,0,23.62.06l.43.06"/><path class="cls-3" d="M12.54,4c-1.59-.9-1.15-1.94.84-2.69A21.61,21.61,0,0,1,18.18.08l.24,0C14.8.54,14.11,1.54,15,2.25l.29.19A21.53,21.53,0,0,0,12.54,4"/><path class="cls-3" d="M35.25,5.48l.17.16c2,1.91-1.13,4-7.8,4.9-7.41,1-16.35.14-20-1.91a24.66,24.66,0,0,1,2.2-2.36C12.87,8,20.35,8.7,26.55,7.87c6-.82,8.64-2.8,6-4.51a22.38,22.38,0,0,1,2.7,2.12"/><path class="cls-3" d="M7.53,8.6c-1.73-1-1.95-2-.91-3l.17-.16A20.29,20.29,0,0,1,9.45,3.35c-1.37.89-1.38,1.94.29,2.89A23.54,23.54,0,0,0,7.53,8.6"/><path class="cls-3" d="M39.47,10.89l.33.64C40.9,13.73,36.91,16,29.36,17,20,18.23,8.69,17.15,4,14.56a23.77,23.77,0,0,1,1.48-2.94C9.76,14,20.08,15,28.64,13.83c7.23-1,10.89-3.16,9.36-5.26.46.68,1.07,1.6,1.47,2.32"/><path class="cls-3" d="M4,14.52c-1.73-1-2.26-2-1.75-3l.33-.64C3,10.12,3.55,9.19,4,8.51c-.74,1-.33,2.08,1.42,3.08A25.93,25.93,0,0,0,4,14.52"/><path class="cls-3" d="M41.71,17.4l.17,1.24C42.12,20.85,37.79,23,30.19,24,19.88,25.4,7.43,24.2,2.3,21.35a22.63,22.63,0,0,1,.57-3.29c5,2.77,17.05,3.93,27.05,2.58,7.69-1,11.93-3.24,11.29-5.48.16.67.39,1.56.5,2.24"/><path class="cls-3" d="M2.23,21.3C.67,20.42,0,19.49.1,18.57l.17-1.24c.15-.67.33-1.57.51-2.24-.28,1,.35,2,2,2.93a24.16,24.16,0,0,0-.56,3.28"/><path class="cls-3" d="M41.66,24.71l-.33,1.48C40.83,28.14,36.72,30,30,30.86c-10.07,1.35-22.22.19-27.23-2.6a20.16,20.16,0,0,1-.48-3.17c5.14,2.87,17.62,4.06,28,2.67,7.26-1,11.54-3,11.72-5.07-.07.6-.15,1.42-.27,2"/><path class="cls-3" d="M2.66,28.22a3.83,3.83,0,0,1-2-2.1l-.13-.53c-.17-.89-.35-2.08-.46-3,.07.82.76,1.64,2.14,2.43a20.35,20.35,0,0,0,.49,3.17"/><path class="cls-3" d="M39.33,31.18c-.32.51-.72,1.2-1.06,1.69-1,1.46-4.39,2.76-9.55,3.45C20,37.49,9.53,36.49,5.21,34.08A16.9,16.9,0,0,1,3.8,31.5C8.51,34.12,20,35.22,29.42,33.94c6-.8,9.78-2.37,10.59-4.08l-.68,1.32"/><path class="cls-3" d="M5.14,34a4.44,4.44,0,0,1-1.48-1.23l-.57-.87c-.36-.64-.84-1.49-1.16-2.14a4.18,4.18,0,0,0,1.81,1.66A17.26,17.26,0,0,0,5.14,34"/><path class="cls-3" d="M35,36.55c-.59.5-1.41,1.15-2,1.61A15.64,15.64,0,0,1,26.67,40c-6.4.86-14.13.12-17.31-1.65a15,15,0,0,1-2.15-1.83c3.77,2.11,12.93,3,20.52,2,4.08-.55,6.88-1.53,8-2.66l-.73.69"/><path class="cls-3" d="M9.31,38.36l-.39-.24c-.39-.29-.92-.68-1.3-1s-1-.91-1.46-1.32a4.7,4.7,0,0,0,1,.72,15,15,0,0,0,2.15,1.83"/><path class="cls-3" d="M28.73,40.46a22.29,22.29,0,0,1-4.32,1.19l-.43.07a23.07,23.07,0,0,1-6.77-.13l-.49-.09c-.9-.21-1-.22-1.47-.36-1.1-.34-1.21-.38-1.93-.66l-.66-.27c2.7,1.16,8.11,1.6,12.65,1a16.12,16.12,0,0,0,3.93-1l-.51.21"/></g></g></svg>