<svg width="600" height="616" viewBox="0 0 600 616" fill="none" xmlns="http://www.w3.org/2000/svg">
<g style="mix-blend-mode:color-dodge" filter="url(#filter0_f_80_421)">
<g filter="url(#filter1_f_80_421)">
<path d="M12.5915 477.13C59.5648 361.655 113.98 277.523 131.981 212.864C158.902 157.552 137.037 146.155 147.404 95.6026C163.473 15.4106 198.062 -75.6721 287.865 -48.8619C396.6 10.2587 450.375 99.6954 421.751 181.368C402.959 254.816 342.133 317.346 265.441 363.235C181.617 423.525 46.708 520.351 12.5915 477.13Z" fill="#00D1FF"/>
</g>
<g style="mix-blend-mode:color-dodge" filter="url(#filter2_f_80_421)">
<path d="M79.033 487.061C126.006 371.586 180.421 287.454 198.422 222.794C225.344 167.482 203.479 156.085 213.846 105.533C229.914 25.3415 264.504 -65.7412 354.307 -38.9311C463.042 20.1895 516.816 109.626 488.192 191.298C469.401 264.747 408.574 327.277 331.883 373.166C248.059 433.456 113.15 530.282 79.033 487.061Z" fill="#413ED0"/>
</g>
</g>
<defs>
<filter id="filter0_f_80_421" x="-57.4084" y="-123.644" width="623.209" height="691.477" filterUnits="userSpaceOnUse" color-interpolation-filters="sRGB">
<feFlood flood-opacity="0" result="BackgroundImageFix"/>
<feBlend mode="normal" in="SourceGraphic" in2="BackgroundImageFix" result="shape"/>
<feGaussianBlur stdDeviation="35" result="effect1_foregroundBlur_80_421"/>
</filter>
<filter id="filter1_f_80_421" x="-87.4084" y="-153.644" width="616.767" height="741.546" filterUnits="userSpaceOnUse" color-interpolation-filters="sRGB">
<feFlood flood-opacity="0" result="BackgroundImageFix"/>
<feBlend mode="normal" in="SourceGraphic" in2="BackgroundImageFix" result="shape"/>
<feGaussianBlur stdDeviation="50" result="effect1_foregroundBlur_80_421"/>
</filter>
<filter id="filter2_f_80_421" x="-20.9669" y="-143.713" width="616.767" height="741.546" filterUnits="userSpaceOnUse" color-interpolation-filters="sRGB">
<feFlood flood-opacity="0" result="BackgroundImageFix"/>
<feBlend mode="normal" in="SourceGraphic" in2="BackgroundImageFix" result="shape"/>
<feGaussianBlur stdDeviation="50" result="effect1_foregroundBlur_80_421"/>
</filter>
</defs>
</svg>
